<?xml version="1.0" standalone="no"?><!DOCTYPE svg PUBLIC "-//W3C//DTD SVG 1.1//EN" "http://www.w3.org/Graphics/SVG/1.1/DTD/svg11.dtd"><svg t="1638171480541" class="icon" viewBox="0 0 1024 1024" version="1.1" xmlns="http://www.w3.org/2000/svg" p-id="1829" xmlns:xlink="http://www.w3.org/1999/xlink" width="128" height="128"><defs><style type="text/css"></style></defs><path d="M848 64H176c-61.8 0-112 50.2-112 112v672c0 61.8 50.2 112 112 112h672c61.8 0 112-50.2 112-112V176c0-61.8-50.2-112-112-112z m-672 89.6h672c12.3 0 22.4 10.1 22.4 22.4v419l-100-172.8c-16.9-29.2-47.2-47.6-81-49.1-33.9-1.4-65.5 14.1-85 41.8L475.1 598.8 373.9 476.6c-20.6-24.8-52-38.1-84.1-35.4-32.1 2.7-60.9 20.9-77.1 48.8l-59.1 102.1V176c0-12.3 10.1-22.4 22.4-22.4zM153.6 848v-76.9L290.3 535c1.9-3.3 4.9-4.3 7-4.4 2-0.2 5.2 0.2 7.6 3.2l116.8 141-137.5 195.6H176c-12.3 0-22.4-10.1-22.4-22.4zM848 870.4H393.7l284-403.9c2.3-3.3 5.5-4 7.7-3.8 2.2 0.1 5.3 1 7.4 4.5l177.6 306.7V848c0 12.3-10.1 22.4-22.4 22.4z" fill="#BDBDBD" p-id="1830"></path><path d="M521.9 377.6c-37.1 0-67.2-30.1-67.2-67.2s30.1-67.2 67.2-67.2 67.2 30.1 67.2 67.2-30.1 67.2-67.2 67.2z" fill="#BDBDBD" p-id="1831"></path></svg>