<?xml version="1.0" standalone="no"?><!DOCTYPE svg PUBLIC "-//W3C//DTD SVG 1.1//EN" "http://www.w3.org/Graphics/SVG/1.1/DTD/svg11.dtd"><svg t="1638171164293" class="icon" viewBox="0 0 1024 1024" version="1.1" xmlns="http://www.w3.org/2000/svg" p-id="1694" xmlns:xlink="http://www.w3.org/1999/xlink" width="128" height="128"><defs><style type="text/css"></style></defs><path d="M448.6 772.6c-16.1 0-32.2-4.2-46.9-12.7-29.4-17-46.9-47.4-46.9-81.3V530.4c0-33.9 17.5-64.3 46.9-81.3s64.5-17 93.9 0l128.3 74.1c29.4 17 46.9 47.4 46.9 81.3s-17.6 64.3-46.9 81.3l-128.3 74.1c-14.7 8.5-30.8 12.7-47 12.7z m0-250.8c-1.4 0-2.9 0.4-4.3 1.2-2.8 1.6-4.3 4.1-4.3 7.4v148.1c0 3.3 1.4 5.8 4.3 7.4 2.8 1.7 5.7 1.7 8.5 0l128.3-74.1c2.8-1.6 4.3-4.1 4.3-7.4 0-3.2-1.4-5.8-4.3-7.4l-128.3-74.1c-1.3-0.7-2.7-1.1-4.2-1.1z" fill="#BDBDBD" p-id="1695"></path><path d="M832.8 85.3h-640C134 85.3 86.1 133.2 86.1 192v640c0 58.8 47.9 106.7 106.7 106.7h640c58.8 0 106.7-47.9 106.7-106.7V192c0-58.8-47.9-106.7-106.7-106.7zM854.1 192v85.3H663.6l47.6-106.7h121.6c11.7 0.1 21.3 9.6 21.3 21.4z m-236.4-21.3l-47.6 106.7H407.6l47.6-106.7h162.5z m-424.9 0h168.9l-47.6 106.7H171.5V192c0-11.8 9.5-21.3 21.3-21.3z m640 682.6h-640c-11.8 0-21.3-9.6-21.3-21.3V362.7h682.7V832c-0.1 11.8-9.7 21.3-21.4 21.3z" fill="#BDBDBD" p-id="1696"></path></svg>